# xmcd CD database file
#
# Track frame offsets:
#	150
#	13750
#	31161
#	44845
#	60423
#	75524
#	89240
#	105982
#	118085
#	133437
#	145230
#	161281
#	178889
#	195329
#	212730
#
# Disc length: 3035 seconds
#
# Revision: 1
# Processed by: cddbd v1.5.2PL0 Copyright (c) Steve Scherf et al.
# Submitted via: CDex 1.70beta2
#
DISCID=d20bd90f
DTITLE=Zé Henrique and Gabriel - Zé Henrique and Gabriel Ao Vivo
DYEAR=2007
DGENRE=Country
TTITLE0=Aperta o pé
TTITLE1=Declaração
TTITLE2=Só quer amar
TTITLE3=Você é a dona do meu coração
TTITLE4=Vou dormir na rua
TTITLE5=Morro de saudade
TTITLE6=Calma, respira
TTITLE7=Quando olhei pra você
TTITLE8=Vitrine
TTITLE9=Empreitada perigosa
TTITLE10=Te esquecer demora
TTITLE11=O Brasil tá cheio
TTITLE12=Vou te chamar de amor
TTITLE13=Sonhei com você
TTITLE14=Tem tudo a ver
EXTD=YEAR: 2007
EXTT0=
EXTT1=
EXTT2=
EXTT3=
EXTT4=
EXTT5=
EXTT6=
EXTT7=
EXTT8=
EXTT9=
EXTT10=
EXTT11=
EXTT12=
EXTT13=
EXTT14=
PLAYORDER=
